<?xml version="1.0" encoding="UTF-8"?>
<svg width="21px" height="16px" fill="#FFFFFF" fill-rule="nonzero" viewBox="0 0 21 16" version="1.1" xmlns="http://www.w3.org/2000/svg" xmlns:xlink="http://www.w3.org/1999/xlink">
    <title>noun_Check_2804953</title>
    <g id="Symbols" stroke="none" stroke-width="1">
        <g transform="translate(-8.000000, -43.000000)">
            <g id="noun_Check_2804953" transform="translate(8.000000, 43.000000)">
                <g id="82" transform="translate(0.089286, 0.089286)">
                    <path d="M19.5092941,0.370584214 C19.3013565,0.145787944 19.0126354,0.0128017855 18.7066464,0.00088125908 C18.4006573,-0.0110392674 18.1024654,0.0990823086 17.8776696,0.307020429 L7.30831982,10.0838534 L1.91476725,5.40270246 C1.45625039,5.00474651 0.768077797,5.02904887 0.338775241,5.45835759 C-0.0905273145,5.8876663 -0.114819803,6.57583924 0.283142732,7.03435039 L6.09061768,13.7256254 C6.13053411,13.7714709 6.17286092,13.8151608 6.21741873,13.8565098 C6.89231133,14.4807998 7.94550577,14.4397826 8.56980123,13.764895 L8.60611371,13.7256254 L19.5092941,1.93866713 C19.9166321,1.49533288 19.9166321,0.813918459 19.5092941,0.370584214 Z" id="Path"></path>
                </g>
            </g>
        </g>
    </g>
</svg>