<svg height='100px' width='100px'  fill="#ffffff" xmlns="http://www.w3.org/2000/svg" xmlns:xlink="http://www.w3.org/1999/xlink" version="1.1" x="0px" y="0px" viewBox="0 0 512 512" style="enable-background:new 0 0 512 512;" xml:space="preserve"><g><g><g><g><path d="M360.96,457.43H145.99c-12.09-0.01-21.94-9.86-21.95-21.95v-6.92c0-1.649,1.34-3,3-3c1.65,0,3,1.351,3,3v6.92      c0.01,8.78,7.17,15.94,15.95,15.95h214.97c8.79-0.01,15.96-7.17,15.979-15.95V366.91c0-1.65,1.351-3,3-3c1.65,0,3,1.35,3,3      v68.569C382.93,447.569,373.069,457.42,360.96,457.43z M127.04,411.56c-1.66,0-3-1.34-3-3c0-1.649,1.34-3,3-3      c1.65,0,3,1.351,3,3C130.04,410.22,128.69,411.56,127.04,411.56z M127.04,391.56c-1.66,0-3-1.34-3-3V189.01      c0-0.79,0.32-1.57,0.88-2.12c0.55-0.56,1.33-0.88,2.12-0.88h29.34v-58.64h-29.34c-0.79,0-1.56-0.32-2.12-0.88      s-0.88-1.33-0.88-2.12v-21.13c0-1.66,1.34-3,3-3c1.65,0,3,1.34,3,3v18.13h29.33c0.8,0,1.57,0.32,2.13,0.88      c0.56,0.55,0.88,1.33,0.88,2.12v64.64c0,0.79-0.32,1.56-0.88,2.12s-1.33,0.88-2.13,0.88h-29.33v196.54v0.01      C130.04,390.22,128.69,391.56,127.04,391.56z M363.54,366.31c-1.65,0-3-1.35-3-3c0-1.66,1.35-3,3-3c1.66,0,3,1.34,3,3      C366.54,364.96,365.2,366.31,363.54,366.31z M343.54,366.31h-64.311c-0.79,0-1.56-0.319-2.12-0.88      c-0.56-0.56-0.88-1.33-0.88-2.12v-93.54c0-0.79,0.32-1.56,0.88-2.12c0.561-0.56,1.33-0.88,2.12-0.88h97.71v-88.44      c0-1.65,1.351-3,3-3c1.65,0,3,1.35,3,3v91.44c0,0.8-0.31,1.561-0.88,2.12c-0.56,0.57-1.319,0.88-2.12,0.88h-97.71v87.54h61.311      c1.66,0,3,1.34,3,3C346.54,364.96,345.2,366.31,343.54,366.31z M379.939,161.33c-1.649,0-3-1.35-3-3c0-1.66,1.351-3,3-3      c1.65,0,3,1.34,3,3C382.939,159.98,381.59,161.33,379.939,161.33z M379.939,141.33c-1.649,0-3-1.35-3-3V62.85      c-0.02-8.78-7.189-15.94-15.979-15.96H145.99c-8.78,0.02-15.94,7.18-15.95,15.96v0.38c0,0,0,0,0,0.01c0,1.65-1.35,3-3,3      c-1.66,0-3-1.35-3-3v-0.39c0.01-12.1,9.86-21.95,21.95-21.96h214.97c12.109,0.01,21.97,9.86,21.979,21.96v75.48      C382.939,139.98,381.6,141.33,379.939,141.33z M127.04,86.24c-1.66,0-3-1.35-3-3c0-1.66,1.34-3,3-3c1.65,0,3,1.34,3,3      C130.04,84.89,128.69,86.24,127.04,86.24z"></path></g><g><path d="M360.96,457.43L360.96,457.43H145.99c-12.1-0.01-21.94-9.87-21.95-21.979v-21.5c0-1.66,1.34-3,3-3c1.65,0,3,1.34,3,3      v21.5c0.01,8.79,7.17,15.97,15.95,15.979h214.97c8.79-0.01,15.96-7.189,15.979-15.979V384.52H134.61c-1.66,0-3-1.35-3-3      c0-1.649,1.34-3,3-3h245.33c0.79,0,1.561,0.32,2.12,0.88c0.561,0.561,0.88,1.33,0.88,2.12v53.931      C382.93,447.56,373.069,457.42,360.96,457.43z M127.04,396.95c-1.66,0-3-1.351-3-3c0-1.66,1.34-3,3-3c1.65,0,3,1.34,3,3      C130.04,395.6,128.69,396.95,127.04,396.95z"></path></g><g><path d="M253.49,434.81L253.49,434.81c-4.54-0.01-8.79-1.77-11.99-4.97c-3.2-3.2-4.97-7.46-4.97-11.99c0-4.54,1.77-8.8,4.97-12      c3.2-3.189,7.45-4.96,11.99-4.97l0,0l0,0l0,0c9.35,0,16.96,7.61,16.96,16.97C270.45,427.2,262.84,434.81,253.49,434.81z       M253.49,406.88c-6.04,0-10.96,4.92-10.97,10.97c0.01,6.04,4.93,10.96,10.97,10.96c6.03-0.01,10.95-4.93,10.96-10.96      C264.439,411.81,259.52,406.89,253.49,406.88L253.49,406.88z"></path></g><g><path d="M343.52,95.29H127.04c-1.66,0-3-1.35-3-3c0-1.66,1.34-3,3-3H343.52c1.65,0,3,1.34,3,3      C346.52,93.94,345.17,95.29,343.52,95.29z"></path></g><g><path d="M272.6,73.12h-38.22c-1.66,0-3-1.35-3-3c0-1.66,1.34-3,3-3h38.22c1.66,0,3,1.34,3,3      C275.6,71.77,274.26,73.12,272.6,73.12z"></path></g><g><path d="M330.71,473.52H76.39c-1.65,0-3-1.35-3-3c0-1.66,1.35-3,3-3h254.32c1.649,0,3,1.34,3,3      C333.71,472.17,332.359,473.52,330.71,473.52z"></path></g><g><path d="M441.3,489H216.87c-1.65,0-3-1.351-3-3c0-1.66,1.35-3,3-3H441.3c1.66,0,3,1.34,3,3C444.3,487.649,442.96,489,441.3,489z      "></path></g><g><path d="M198.89,489h-22.01c-1.66,0-3-1.351-3-3c0-1.66,1.34-3,3-3h22.01c1.65,0,3,1.34,3,3      C201.89,487.649,200.54,489,198.89,489z"></path></g><g><path d="M370.319,473.52h-22.01c-1.649,0-3-1.35-3-3c0-1.66,1.351-3,3-3h22.01c1.65,0,3,1.34,3,3      C373.319,472.17,371.97,473.52,370.319,473.52z"></path></g><g><path d="M421.189,366.31h-114.5c-1.649,0-3-1.35-3-3c0-1.66,1.351-3,3-3h111.5v-87.54h-135.96v77.98c0,0.01,0,0.01,0,0.02      c0,1.65-1.34,3-3,3c-1.649,0-3-1.35-3-3v-81c0-0.79,0.32-1.56,0.88-2.12c0.561-0.56,1.33-0.88,2.12-0.88h141.96      c0.79,0,1.561,0.32,2.12,0.88c0.561,0.561,0.88,1.33,0.88,2.12v93.54c0,0.8-0.31,1.55-0.88,2.12      C422.75,366,421.99,366.31,421.189,366.31z M286.689,366.31c-1.659,0-3-1.35-3-3c0-1.66,1.341-3,3-3c1.65,0,3,1.34,3,3      C289.689,364.96,288.34,366.31,286.689,366.31z"></path></g><g><path d="M345.26,292.56h-49.78c-1.649,0-3-1.35-3-3c0-1.649,1.351-3,3-3h49.78c1.65,0,3,1.351,3,3      C348.26,291.21,346.91,292.56,345.26,292.56z"></path></g><g><path d="M404.939,309.06h-109.46c-1.66,0-3-1.34-3-2.99c0-1.659,1.34-3,3-3h109.46c1.66,0,3,1.341,3,3      C407.939,307.72,406.6,309.06,404.939,309.06z"></path></g><g><path d="M404.939,325.569h-109.46c-1.66,0-3-1.34-3-3c0-1.649,1.34-3,3-3h109.46c1.66,0,3,1.351,3,3      C407.939,324.229,406.6,325.569,404.939,325.569z"></path></g><g><path d="M404.939,342.08h-109.46c-1.66,0-3-1.351-3-3c0-1.65,1.34-3,3-3h109.46c1.66,0,3,1.35,3,3      C407.939,340.729,406.6,342.08,404.939,342.08z"></path></g><g><path d="M397.29,254.88h-17.351c-0.79,0-1.56-0.32-2.12-0.88c-0.56-0.56-0.88-1.33-0.88-2.12V62.85      c-0.02-8.78-7.189-15.94-15.979-15.96h-23.4c-1.649,0-3-1.34-3-3c0-1.65,1.351-3,3-3h23.4c12.109,0.01,21.97,9.86,21.979,21.96      v186.03h11.351v-87.44c0-1.66,1.34-3,3-3c1.649,0,2.99,1.34,2.99,3v90.44c0,0.8-0.311,1.56-0.87,2.12      C398.84,254.57,398.09,254.88,397.29,254.88z M397.29,144.44c-1.66,0-3-1.35-3-3c0-1.66,1.34-3,3-3c1.649,0,2.99,1.34,2.99,3      C400.28,143.09,398.939,144.44,397.29,144.44z M397.29,124.44c-1.66,0-3-1.35-3-3V44.96C394.27,36.18,387.1,29.02,378.3,29      H163.34c-7.24,0-13.58,4.89-15.43,11.89h149.66c1.65,0,2.99,1.35,2.99,3c0,1.66-1.34,3-2.99,3H145.99      c-0.37,0-0.82,0.03-1.39,0.06c-0.86,0.05-1.69-0.26-2.3-0.86c-0.6-0.6-0.93-1.43-0.88-2.29c0.29-5.61,2.71-10.84,6.8-14.74      c4.11-3.9,9.49-6.05,15.14-6.06H378.3c12.12,0.01,21.98,9.86,21.98,21.96l0.01,76.48      C400.29,123.09,398.939,124.44,397.29,124.44z M317.569,46.89c-1.659,0-3.01-1.34-3.01-3c0-1.65,1.351-3,3.01-3      c1.65,0,2.99,1.35,2.99,3C320.56,45.55,319.22,46.89,317.569,46.89z"></path></g><g><path d="M159.37,192.01H94.7c-0.79,0-1.56-0.32-2.12-0.88c-0.56-0.56-0.88-1.33-0.88-2.12v-64.64c0-0.79,0.32-1.57,0.88-2.12      c0.56-0.56,1.33-0.88,2.12-0.88h64.67c0.8,0,1.57,0.32,2.13,0.88s0.88,1.33,0.88,2.12v64.64c0,0.79-0.32,1.56-0.88,2.12      S160.17,192.01,159.37,192.01z M97.7,186.01h58.68v-58.64H97.7V186.01z"></path></g><g><path d="M141.07,159.67h-28.06c-1.66,0-3-1.34-3-3c0-1.65,1.34-3,3-3h28.06c1.65,0,3,1.35,3,3      C144.07,158.33,142.72,159.67,141.07,159.67z"></path></g><g><path d="M127.04,173.7c-1.66,0-3-1.35-3-3v-28.06c0-1.65,1.34-3,3-3c1.65,0,3,1.35,3,3v28.06      C130.04,172.35,128.69,173.7,127.04,173.7z"></path></g><g><path d="M264.91,124.34h-67.12c-1.65,0-3-1.34-3-3c0-1.65,1.35-3,3-3h67.12c1.649,0,3,1.35,3,3      C267.91,123,266.56,124.34,264.91,124.34z"></path></g><g><path d="M296.25,145.77h-98.46c-1.65,0-3-1.34-3-3c0-1.65,1.35-3,3-3h98.46c1.649,0,3,1.35,3,3      C299.25,144.43,297.899,145.77,296.25,145.77z"></path></g><g><path d="M344.68,167.23H197.79c-1.65,0-3-1.34-3-3c0-1.65,1.35-3,3-3h146.89c1.65,0,3,1.35,3,3      C347.68,165.89,346.33,167.23,344.68,167.23z"></path></g><g><path d="M344.68,188.69H197.79c-1.65,0-3-1.34-3-2.99c0-1.66,1.35-3,3-3h146.89c1.65,0,3,1.34,3,3      C347.68,187.35,346.33,188.69,344.68,188.69z"></path></g><g><path d="M344.68,210.16H197.79c-1.65,0-3-1.35-3-3c0-1.66,1.35-3,3-3h146.89c1.65,0,3,1.34,3,3      C347.68,208.81,346.33,210.16,344.68,210.16z"></path></g><g><path d="M98.75,372.74c-1.65,0-3-1.341-3-3V215.4H70.7c-0.79,0-1.57-0.32-2.13-0.88c-0.55-0.56-0.87-1.33-0.87-2.12v-77.03      c0-1.65,1.34-3,3-3c1.65,0,3,1.35,3,3l-0.01,74.03h25.06c0.79,0,1.57,0.32,2.12,0.88c0.56,0.56,0.88,1.33,0.88,2.12v157.34      C101.75,371.399,100.41,372.74,98.75,372.74z"></path></g></g></g></g></svg>