<svg height='100px' width='100px'  fill="#ffffff" xmlns="http://www.w3.org/2000/svg" xmlns:xlink="http://www.w3.org/1999/xlink" version="1.1" x="0px" y="0px" viewBox="0 0 32 32" style="enable-background:new 0 0 32 32;" xml:space="preserve"><g><g><path d="M30.2,32H1.8c-1,0-1.8-0.8-1.8-1.8v-5.4c0-1,0.8-1.8,1.8-1.8h28.4c1,0,1.8,0.8,1.8,1.8v5.4C32,31.2,31.2,32,30.2,32z     M1.8,24.5c-0.2,0-0.3,0.1-0.3,0.3v5.4c0,0.2,0.1,0.3,0.3,0.3h28.4c0.2,0,0.3-0.1,0.3-0.3v-5.4c0-0.2-0.1-0.3-0.3-0.3H1.8z"></path></g><g><g><path d="M28.6,29.3c-0.4,0-0.8-0.3-0.8-0.8v-2c0-0.4,0.3-0.8,0.8-0.8s0.8,0.3,0.8,0.8v2C29.4,28.9,29.1,29.3,28.6,29.3z"></path></g><g><path d="M26.2,29.3c-0.4,0-0.8-0.3-0.8-0.8v-2c0-0.4,0.3-0.8,0.8-0.8s0.8,0.3,0.8,0.8v2C26.9,28.9,26.6,29.3,26.2,29.3z"></path></g><g><path d="M23.7,29.3c-0.4,0-0.8-0.3-0.8-0.8v-2c0-0.4,0.3-0.8,0.8-0.8s0.8,0.3,0.8,0.8v2C24.5,28.9,24.2,29.3,23.7,29.3z"></path></g><g><path d="M21.3,29.3c-0.4,0-0.8-0.3-0.8-0.8v-2c0-0.4,0.3-0.8,0.8-0.8s0.8,0.3,0.8,0.8v2C22,28.9,21.7,29.3,21.3,29.3z"></path></g><g><path d="M18.8,29.3c-0.4,0-0.8-0.3-0.8-0.8v-2c0-0.4,0.3-0.8,0.8-0.8s0.8,0.3,0.8,0.8v2C19.6,28.9,19.3,29.3,18.8,29.3z"></path></g><g><path d="M16.4,29.3c-0.4,0-0.8-0.3-0.8-0.8v-2c0-0.4,0.3-0.8,0.8-0.8s0.8,0.3,0.8,0.8v2C17.1,28.9,16.8,29.3,16.4,29.3z"></path></g><g><path d="M13.9,29.3c-0.4,0-0.8-0.3-0.8-0.8v-2c0-0.4,0.3-0.8,0.8-0.8s0.8,0.3,0.8,0.8v2C14.7,28.9,14.4,29.3,13.9,29.3z"></path></g></g><g><g><circle cx="4" cy="27.5" r="0.8"></circle></g><g><circle cx="6.7" cy="27.5" r="0.8"></circle></g><g><circle cx="9.4" cy="27.5" r="0.8"></circle></g></g><g><path d="M30.2,20.5H1.8c-1,0-1.8-0.8-1.8-1.8v-5.4c0-1,0.8-1.8,1.8-1.8h28.4c1,0,1.8,0.8,1.8,1.8v5.4C32,19.7,31.2,20.5,30.2,20.5    z M1.8,13c-0.2,0-0.3,0.1-0.3,0.3v5.4c0,0.2,0.1,0.3,0.3,0.3h28.4c0.2,0,0.3-0.1,0.3-0.3v-5.4c0-0.2-0.1-0.3-0.3-0.3H1.8z"></path></g><g><g><path d="M28.6,17.8c-0.4,0-0.8-0.3-0.8-0.8v-2c0-0.4,0.3-0.8,0.8-0.8s0.8,0.3,0.8,0.8v2C29.4,17.4,29.1,17.8,28.6,17.8z"></path></g><g><path d="M26.2,17.8c-0.4,0-0.8-0.3-0.8-0.8v-2c0-0.4,0.3-0.8,0.8-0.8s0.8,0.3,0.8,0.8v2C26.9,17.4,26.6,17.8,26.2,17.8z"></path></g><g><path d="M23.7,17.8c-0.4,0-0.8-0.3-0.8-0.8v-2c0-0.4,0.3-0.8,0.8-0.8s0.8,0.3,0.8,0.8v2C24.5,17.4,24.2,17.8,23.7,17.8z"></path></g><g><path d="M21.3,17.8c-0.4,0-0.8-0.3-0.8-0.8v-2c0-0.4,0.3-0.8,0.8-0.8S22,14.6,22,15v2C22,17.4,21.7,17.8,21.3,17.8z"></path></g><g><path d="M18.8,17.8c-0.4,0-0.8-0.3-0.8-0.8v-2c0-0.4,0.3-0.8,0.8-0.8s0.8,0.3,0.8,0.8v2C19.6,17.4,19.3,17.8,18.8,17.8z"></path></g><g><path d="M16.4,17.8c-0.4,0-0.8-0.3-0.8-0.8v-2c0-0.4,0.3-0.8,0.8-0.8s0.8,0.3,0.8,0.8v2C17.1,17.4,16.8,17.8,16.4,17.8z"></path></g><g><path d="M13.9,17.8c-0.4,0-0.8-0.3-0.8-0.8v-2c0-0.4,0.3-0.8,0.8-0.8s0.8,0.3,0.8,0.8v2C14.7,17.4,14.4,17.8,13.9,17.8z"></path></g></g><g><g><circle cx="4" cy="16" r="0.8"></circle></g><g><circle cx="6.7" cy="16" r="0.8"></circle></g><g><circle cx="9.4" cy="16" r="0.8"></circle></g></g><g><path d="M30.2,9H1.8C0.8,9,0,8.2,0,7.2V1.8C0,0.8,0.8,0,1.8,0h28.4c1,0,1.8,0.8,1.8,1.8v5.4C32,8.2,31.2,9,30.2,9z M1.8,1.5    c-0.2,0-0.3,0.1-0.3,0.3v5.4c0,0.2,0.1,0.3,0.3,0.3h28.4c0.2,0,0.3-0.1,0.3-0.3V1.8c0-0.2-0.1-0.3-0.3-0.3H1.8z"></path></g><g><g><path d="M28.6,6.3c-0.4,0-0.8-0.3-0.8-0.8v-2c0-0.4,0.3-0.8,0.8-0.8s0.8,0.3,0.8,0.8v2C29.4,5.9,29.1,6.3,28.6,6.3z"></path></g><g><path d="M26.2,6.3c-0.4,0-0.8-0.3-0.8-0.8v-2c0-0.4,0.3-0.8,0.8-0.8s0.8,0.3,0.8,0.8v2C26.9,5.9,26.6,6.3,26.2,6.3z"></path></g><g><path d="M23.7,6.3c-0.4,0-0.8-0.3-0.8-0.8v-2c0-0.4,0.3-0.8,0.8-0.8s0.8,0.3,0.8,0.8v2C24.5,5.9,24.2,6.3,23.7,6.3z"></path></g><g><path d="M21.3,6.3c-0.4,0-0.8-0.3-0.8-0.8v-2c0-0.4,0.3-0.8,0.8-0.8S22,3.1,22,3.5v2C22,5.9,21.7,6.3,21.3,6.3z"></path></g><g><path d="M18.8,6.3c-0.4,0-0.8-0.3-0.8-0.8v-2c0-0.4,0.3-0.8,0.8-0.8s0.8,0.3,0.8,0.8v2C19.6,5.9,19.3,6.3,18.8,6.3z"></path></g><g><path d="M16.4,6.3c-0.4,0-0.8-0.3-0.8-0.8v-2c0-0.4,0.3-0.8,0.8-0.8s0.8,0.3,0.8,0.8v2C17.1,5.9,16.8,6.3,16.4,6.3z"></path></g><g><path d="M13.9,6.3c-0.4,0-0.8-0.3-0.8-0.8v-2c0-0.4,0.3-0.8,0.8-0.8s0.8,0.3,0.8,0.8v2C14.7,5.9,14.4,6.3,13.9,6.3z"></path></g></g><g><g><circle cx="4" cy="4.5" r="0.8"></circle></g><g><circle cx="6.7" cy="4.5" r="0.8"></circle></g><g><circle cx="9.4" cy="4.5" r="0.8"></circle></g></g></g></svg>